<?xml version="1.0" encoding="utf-8"?>
<!-- Generator: Circuit Diagram, cdlibrary.dll 4.0.0.0 -->
<!DOCTYPE svg PUBLIC "-//W3C//DTD SVG 1.1//EN" "http://www.w3.org/Graphics/SVG/1.1/DTD/svg11.dtd">
<svg version="1.1" width="400" height="360" xmlns="http://www.w3.org/2000/svg">
	<line x1="130" y1="320" x2="220" y2="320" style="stroke:rgb(0, 0, 0);stroke-linecap:square;stroke-width:2" />
	<line x1="130" y1="320" x2="220" y2="320" style="stroke:rgb(0, 0, 0);stroke-linecap:square;stroke-width:2" />
	<line x1="320" y1="220" x2="320" y2="270" style="stroke:rgb(0, 0, 0);stroke-linecap:square;stroke-width:2" />
	<line x1="180" y1="270" x2="320" y2="270" style="stroke:rgb(0, 0, 0);stroke-linecap:square;stroke-width:2" />
	<line x1="180" y1="270" x2="180" y2="310" style="stroke:rgb(0, 0, 0);stroke-linecap:square;stroke-width:2" />
	<line x1="130" y1="310" x2="180" y2="310" style="stroke:rgb(0, 0, 0);stroke-linecap:square;stroke-width:2" />
	<line x1="140" y1="310" x2="180" y2="310" style="stroke:rgb(0, 0, 0);stroke-linecap:square;stroke-width:2" />
	<line x1="180" y1="270" x2="180" y2="310" style="stroke:rgb(0, 0, 0);stroke-linecap:square;stroke-width:2" />
	<line x1="180" y1="270" x2="320" y2="270" style="stroke:rgb(0, 0, 0);stroke-linecap:square;stroke-width:2" />
	<line x1="320" y1="220" x2="320" y2="270" style="stroke:rgb(0, 0, 0);stroke-linecap:square;stroke-width:2" />
	<line x1="300" y1="220" x2="320" y2="220" style="stroke:rgb(0, 0, 0);stroke-linecap:square;stroke-width:2" />
	<line x1="300" y1="230" x2="300" y2="250" style="stroke:rgb(0, 0, 0);stroke-linecap:square;stroke-width:2" />
	<line x1="150" y1="250" x2="300" y2="250" style="stroke:rgb(0, 0, 0);stroke-linecap:square;stroke-width:2" />
	<line x1="150" y1="250" x2="150" y2="300" style="stroke:rgb(0, 0, 0);stroke-linecap:square;stroke-width:2" />
	<line x1="130" y1="300" x2="150" y2="300" style="stroke:rgb(0, 0, 0);stroke-linecap:square;stroke-width:2" />
	<line x1="140" y1="300" x2="150" y2="300" style="stroke:rgb(0, 0, 0);stroke-linecap:square;stroke-width:2" />
	<line x1="150" y1="250" x2="150" y2="300" style="stroke:rgb(0, 0, 0);stroke-linecap:square;stroke-width:2" />
	<line x1="150" y1="250" x2="300" y2="250" style="stroke:rgb(0, 0, 0);stroke-linecap:square;stroke-width:2" />
	<line x1="300" y1="230" x2="300" y2="250" style="stroke:rgb(0, 0, 0);stroke-linecap:square;stroke-width:2" />
	<line x1="130" y1="320" x2="240" y2="320" style="stroke:rgb(0, 0, 0);stroke-linecap:square;stroke-width:2" />
	<line x1="230" y1="320" x2="280" y2="320" style="stroke:rgb(0, 0, 0);stroke-linecap:square;stroke-width:2" />
	<line x1="230" y1="320" x2="260" y2="320" style="stroke:rgb(0, 0, 0);stroke-linecap:square;stroke-width:2" />
	<line x1="240" y1="320" x2="260" y2="320" style="stroke:rgb(0, 0, 0);stroke-linecap:square;stroke-width:2" />
	<line x1="250" y1="320" x2="260" y2="320" style="stroke:rgb(0, 0, 0);stroke-linecap:square;stroke-width:2" />
	<line x1="370" y1="180" x2="370" y2="320" style="stroke:rgb(0, 0, 0);stroke-linecap:square;stroke-width:2" />
	<line x1="370" y1="180" x2="370" y2="320" style="stroke:rgb(0, 0, 0);stroke-linecap:square;stroke-width:2" />
	<line x1="300" y1="180" x2="370" y2="180" style="stroke:rgb(0, 0, 0);stroke-linecap:square;stroke-width:2" />
	<line x1="130" y1="310" x2="140" y2="310" style="stroke:rgb(0, 0, 0);stroke-linecap:square;stroke-width:2" />
	<line x1="140" y1="320" x2="250" y2="320" style="stroke:rgb(0, 0, 0);stroke-linecap:square;stroke-width:2" />
	<text x="80" y="280" style="font-family:Arial;font-size:11px;text-anchor:middle" dominant-baseline="middle" transform="rotate(0, 80, 280)">DHT11 Sensor</text>
	<rect x="30" y="290" width="100" height="40" style="fill-opacity:0;fill:rgb(0, 0, 0);stroke:rgb(0, 0, 0);stroke-width:2" />
	<line x1="130" y1="300" x2="140" y2="300" style="stroke:rgb(0, 0, 0);stroke-linecap:square;stroke-width:2" />
	<text x="126" y="300" style="font-family:Arial;font-size:11px;text-anchor:end" dominant-baseline="middle" transform="rotate(0, 126, 300)">VCC</text>
	<line x1="130" y1="310" x2="140" y2="310" style="stroke:rgb(0, 0, 0);stroke-linecap:square;stroke-width:2" />
	<text x="126" y="310" style="font-family:Arial;font-size:11px;text-anchor:end" dominant-baseline="middle" transform="rotate(0, 126, 310)">GND</text>
	<line x1="130" y1="320" x2="140" y2="320" style="stroke:rgb(0, 0, 0);stroke-linecap:square;stroke-width:2" />
	<text x="126" y="320" style="font-family:Arial;font-size:11px;text-anchor:end" dominant-baseline="middle" transform="rotate(0, 126, 320)">DATA</text>
	<rect x="190" y="50" width="100" height="190" style="fill-opacity:0;fill:rgb(0, 0, 0);stroke:rgb(0, 0, 0);stroke-width:2" />
	<text x="240" y="40" style="font-family:Arial;font-size:11px;text-anchor:middle" dominant-baseline="middle" transform="rotate(0, 240, 40)">ESP32-WROOM-32</text>
	<line x1="180" y1="60" x2="190" y2="60" style="stroke:rgb(0, 0, 0);stroke-linecap:square;stroke-width:2" />
	<text x="194" y="60" style="font-family:Arial;font-size:10px;text-anchor:start" dominant-baseline="middle" transform="rotate(0, 194, 60)">EN</text>
	<text x="186" y="58" style="font-family:Arial;font-size:8px;text-anchor:end" dominant-baseline="baseline" transform="rotate(0, 186, 58)"></text>
	<line x1="290" y1="60" x2="300" y2="60" style="stroke:rgb(0, 0, 0);stroke-linecap:square;stroke-width:2" />
	<text x="286" y="60" style="font-family:Arial;font-size:10px;text-anchor:end" dominant-baseline="middle" transform="rotate(0, 286, 60)">GPIO23</text>
	<text x="294" y="58" style="font-family:Arial;font-size:8px;text-anchor:start" dominant-baseline="baseline" transform="rotate(0, 294, 58)">VSPI MOSI</text>
	<line x1="180" y1="70" x2="190" y2="70" style="stroke:rgb(0, 0, 0);stroke-linecap:square;stroke-width:2" />
	<text x="194" y="70" style="font-family:Arial;font-size:10px;text-anchor:start" dominant-baseline="middle" transform="rotate(0, 194, 70)">GPIO36</text>
	<text x="186" y="68" style="font-family:Arial;font-size:8px;text-anchor:end" dominant-baseline="baseline" transform="rotate(0, 186, 68)">ADC1 CH0</text>
	<line x1="290" y1="70" x2="300" y2="70" style="stroke:rgb(0, 0, 0);stroke-linecap:square;stroke-width:2" />
	<text x="286" y="70" style="font-family:Arial;font-size:10px;text-anchor:end" dominant-baseline="middle" transform="rotate(0, 286, 70)">GPIO22</text>
	<text x="294" y="68" style="font-family:Arial;font-size:8px;text-anchor:start" dominant-baseline="baseline" transform="rotate(0, 294, 68)">I2C SCL</text>
	<line x1="180" y1="80" x2="190" y2="80" style="stroke:rgb(0, 0, 0);stroke-linecap:square;stroke-width:2" />
	<text x="194" y="80" style="font-family:Arial;font-size:10px;text-anchor:start" dominant-baseline="middle" transform="rotate(0, 194, 80)">GPIO39</text>
	<text x="186" y="78" style="font-family:Arial;font-size:8px;text-anchor:end" dominant-baseline="baseline" transform="rotate(0, 186, 78)">ADC1 CH3</text>
	<line x1="290" y1="80" x2="300" y2="80" style="stroke:rgb(0, 0, 0);stroke-linecap:square;stroke-width:2" />
	<text x="286" y="80" style="font-family:Arial;font-size:10px;text-anchor:end" dominant-baseline="middle" transform="rotate(0, 286, 80)">GPIO1</text>
	<text x="294" y="78" style="font-family:Arial;font-size:8px;text-anchor:start" dominant-baseline="baseline" transform="rotate(0, 294, 78)">UART 0 TX</text>
	<line x1="180" y1="90" x2="190" y2="90" style="stroke:rgb(0, 0, 0);stroke-linecap:square;stroke-width:2" />
	<text x="194" y="90" style="font-family:Arial;font-size:10px;text-anchor:start" dominant-baseline="middle" transform="rotate(0, 194, 90)">GPIO34</text>
	<text x="186" y="88" style="font-family:Arial;font-size:8px;text-anchor:end" dominant-baseline="baseline" transform="rotate(0, 186, 88)">ADC1 CH6</text>
	<line x1="290" y1="90" x2="300" y2="90" style="stroke:rgb(0, 0, 0);stroke-linecap:square;stroke-width:2" />
	<text x="286" y="90" style="font-family:Arial;font-size:10px;text-anchor:end" dominant-baseline="middle" transform="rotate(0, 286, 90)">GPIO3</text>
	<text x="294" y="88" style="font-family:Arial;font-size:8px;text-anchor:start" dominant-baseline="baseline" transform="rotate(0, 294, 88)">UART 0 RX</text>
	<line x1="180" y1="100" x2="190" y2="100" style="stroke:rgb(0, 0, 0);stroke-linecap:square;stroke-width:2" />
	<text x="194" y="100" style="font-family:Arial;font-size:10px;text-anchor:start" dominant-baseline="middle" transform="rotate(0, 194, 100)">GPIO35</text>
	<text x="186" y="98" style="font-family:Arial;font-size:8px;text-anchor:end" dominant-baseline="baseline" transform="rotate(0, 186, 98)">ADC1 CH7</text>
	<line x1="290" y1="100" x2="300" y2="100" style="stroke:rgb(0, 0, 0);stroke-linecap:square;stroke-width:2" />
	<text x="286" y="100" style="font-family:Arial;font-size:10px;text-anchor:end" dominant-baseline="middle" transform="rotate(0, 286, 100)">GPIO21</text>
	<text x="294" y="98" style="font-family:Arial;font-size:8px;text-anchor:start" dominant-baseline="baseline" transform="rotate(0, 294, 98)">I2C SDA</text>
	<line x1="180" y1="110" x2="190" y2="110" style="stroke:rgb(0, 0, 0);stroke-linecap:square;stroke-width:2" />
	<text x="194" y="110" style="font-family:Arial;font-size:10px;text-anchor:start" dominant-baseline="middle" transform="rotate(0, 194, 110)">GPIO32</text>
	<text x="186" y="108" style="font-family:Arial;font-size:8px;text-anchor:end" dominant-baseline="baseline" transform="rotate(0, 186, 108)">ADC1 CH4</text>
	<line x1="290" y1="110" x2="300" y2="110" style="stroke:rgb(0, 0, 0);stroke-linecap:square;stroke-width:2" />
	<text x="286" y="110" style="font-family:Arial;font-size:10px;text-anchor:end" dominant-baseline="middle" transform="rotate(0, 286, 110)">GPIO19</text>
	<text x="294" y="108" style="font-family:Arial;font-size:8px;text-anchor:start" dominant-baseline="baseline" transform="rotate(0, 294, 108)">VSPI MISO</text>
	<line x1="180" y1="120" x2="190" y2="120" style="stroke:rgb(0, 0, 0);stroke-linecap:square;stroke-width:2" />
	<text x="194" y="120" style="font-family:Arial;font-size:10px;text-anchor:start" dominant-baseline="middle" transform="rotate(0, 194, 120)">GPIO33</text>
	<text x="186" y="118" style="font-family:Arial;font-size:8px;text-anchor:end" dominant-baseline="baseline" transform="rotate(0, 186, 118)">ADC1 CH5</text>
	<line x1="290" y1="120" x2="300" y2="120" style="stroke:rgb(0, 0, 0);stroke-linecap:square;stroke-width:2" />
	<text x="286" y="120" style="font-family:Arial;font-size:10px;text-anchor:end" dominant-baseline="middle" transform="rotate(0, 286, 120)">GPIO18</text>
	<text x="294" y="118" style="font-family:Arial;font-size:8px;text-anchor:start" dominant-baseline="baseline" transform="rotate(0, 294, 118)">VSPI CLK</text>
	<line x1="180" y1="130" x2="190" y2="130" style="stroke:rgb(0, 0, 0);stroke-linecap:square;stroke-width:2" />
	<text x="194" y="130" style="font-family:Arial;font-size:10px;text-anchor:start" dominant-baseline="middle" transform="rotate(0, 194, 130)">GPIO25</text>
	<text x="186" y="128" style="font-family:Arial;font-size:8px;text-anchor:end" dominant-baseline="baseline" transform="rotate(0, 186, 128)">ADC2 CH8</text>
	<line x1="290" y1="130" x2="300" y2="130" style="stroke:rgb(0, 0, 0);stroke-linecap:square;stroke-width:2" />
	<text x="286" y="130" style="font-family:Arial;font-size:10px;text-anchor:end" dominant-baseline="middle" transform="rotate(0, 286, 130)">GPIO5</text>
	<text x="294" y="128" style="font-family:Arial;font-size:8px;text-anchor:start" dominant-baseline="baseline" transform="rotate(0, 294, 128)">VSPI CS0</text>
	<line x1="180" y1="140" x2="190" y2="140" style="stroke:rgb(0, 0, 0);stroke-linecap:square;stroke-width:2" />
	<text x="194" y="140" style="font-family:Arial;font-size:10px;text-anchor:start" dominant-baseline="middle" transform="rotate(0, 194, 140)">GPIO26</text>
	<text x="186" y="138" style="font-family:Arial;font-size:8px;text-anchor:end" dominant-baseline="baseline" transform="rotate(0, 186, 138)">ADC2 CH9</text>
	<line x1="290" y1="140" x2="300" y2="140" style="stroke:rgb(0, 0, 0);stroke-linecap:square;stroke-width:2" />
	<text x="286" y="140" style="font-family:Arial;font-size:10px;text-anchor:end" dominant-baseline="middle" transform="rotate(0, 286, 140)">GPIO17</text>
	<text x="294" y="138" style="font-family:Arial;font-size:8px;text-anchor:start" dominant-baseline="baseline" transform="rotate(0, 294, 138)">UART 2 TX</text>
	<line x1="180" y1="150" x2="190" y2="150" style="stroke:rgb(0, 0, 0);stroke-linecap:square;stroke-width:2" />
	<text x="194" y="150" style="font-family:Arial;font-size:10px;text-anchor:start" dominant-baseline="middle" transform="rotate(0, 194, 150)">GPIO27</text>
	<text x="186" y="148" style="font-family:Arial;font-size:8px;text-anchor:end" dominant-baseline="baseline" transform="rotate(0, 186, 148)">ADC2 CH7</text>
	<line x1="290" y1="150" x2="300" y2="150" style="stroke:rgb(0, 0, 0);stroke-linecap:square;stroke-width:2" />
	<text x="286" y="150" style="font-family:Arial;font-size:10px;text-anchor:end" dominant-baseline="middle" transform="rotate(0, 286, 150)">GPIO16</text>
	<text x="294" y="148" style="font-family:Arial;font-size:8px;text-anchor:start" dominant-baseline="baseline" transform="rotate(0, 294, 148)">UART 2 RX</text>
	<line x1="180" y1="160" x2="190" y2="160" style="stroke:rgb(0, 0, 0);stroke-linecap:square;stroke-width:2" />
	<text x="194" y="160" style="font-family:Arial;font-size:10px;text-anchor:start" dominant-baseline="middle" transform="rotate(0, 194, 160)">GPIO14</text>
	<text x="186" y="158" style="font-family:Arial;font-size:8px;text-anchor:end" dominant-baseline="baseline" transform="rotate(0, 186, 158)">ADC2 CH6</text>
	<line x1="290" y1="160" x2="300" y2="160" style="stroke:rgb(0, 0, 0);stroke-linecap:square;stroke-width:2" />
	<text x="286" y="160" style="font-family:Arial;font-size:10px;text-anchor:end" dominant-baseline="middle" transform="rotate(0, 286, 160)">GPIO4</text>
	<text x="294" y="158" style="font-family:Arial;font-size:8px;text-anchor:start" dominant-baseline="baseline" transform="rotate(0, 294, 158)">ADC2 CH0</text>
	<line x1="180" y1="170" x2="190" y2="170" style="stroke:rgb(0, 0, 0);stroke-linecap:square;stroke-width:2" />
	<text x="194" y="170" style="font-family:Arial;font-size:10px;text-anchor:start" dominant-baseline="middle" transform="rotate(0, 194, 170)">GPIO12</text>
	<text x="186" y="168" style="font-family:Arial;font-size:8px;text-anchor:end" dominant-baseline="baseline" transform="rotate(0, 186, 168)">ADC2 CH5</text>
	<line x1="290" y1="170" x2="300" y2="170" style="stroke:rgb(0, 0, 0);stroke-linecap:square;stroke-width:2" />
	<text x="286" y="170" style="font-family:Arial;font-size:10px;text-anchor:end" dominant-baseline="middle" transform="rotate(0, 286, 170)">GPIO2</text>
	<text x="294" y="168" style="font-family:Arial;font-size:8px;text-anchor:start" dominant-baseline="baseline" transform="rotate(0, 294, 168)">ADC2 CH2</text>
	<line x1="180" y1="180" x2="190" y2="180" style="stroke:rgb(0, 0, 0);stroke-linecap:square;stroke-width:2" />
	<text x="194" y="180" style="font-family:Arial;font-size:10px;text-anchor:start" dominant-baseline="middle" transform="rotate(0, 194, 180)">GPIO13</text>
	<text x="186" y="178" style="font-family:Arial;font-size:8px;text-anchor:end" dominant-baseline="baseline" transform="rotate(0, 186, 178)">ADC2 CH4</text>
	<line x1="290" y1="180" x2="300" y2="180" style="stroke:rgb(0, 0, 0);stroke-linecap:square;stroke-width:2" />
	<text x="286" y="180" style="font-family:Arial;font-size:10px;text-anchor:end" dominant-baseline="middle" transform="rotate(0, 286, 180)">GPIO15</text>
	<text x="294" y="178" style="font-family:Arial;font-size:8px;text-anchor:start" dominant-baseline="baseline" transform="rotate(0, 294, 178)">ADC2 CH3</text>
	<line x1="180" y1="190" x2="190" y2="190" style="stroke:rgb(0, 0, 0);stroke-linecap:square;stroke-width:2" />
	<text x="194" y="190" style="font-family:Arial;font-size:10px;text-anchor:start" dominant-baseline="middle" transform="rotate(0, 194, 190)">GPIO9</text>
	<text x="186" y="188" style="font-family:Arial;font-size:8px;text-anchor:end" dominant-baseline="baseline" transform="rotate(0, 186, 188)">SHD/SD2</text>
	<line x1="290" y1="190" x2="300" y2="190" style="stroke:rgb(0, 0, 0);stroke-linecap:square;stroke-width:2" />
	<text x="286" y="190" style="font-family:Arial;font-size:10px;text-anchor:end" dominant-baseline="middle" transform="rotate(0, 286, 190)">GPIO0</text>
	<text x="294" y="188" style="font-family:Arial;font-size:8px;text-anchor:start" dominant-baseline="baseline" transform="rotate(0, 294, 188)">ADC2 CH1</text>
	<line x1="180" y1="200" x2="190" y2="200" style="stroke:rgb(0, 0, 0);stroke-linecap:square;stroke-width:2" />
	<text x="194" y="200" style="font-family:Arial;font-size:10px;text-anchor:start" dominant-baseline="middle" transform="rotate(0, 194, 200)">GPIO10</text>
	<text x="186" y="198" style="font-family:Arial;font-size:8px;text-anchor:end" dominant-baseline="baseline" transform="rotate(0, 186, 198)">SWP/SD3</text>
	<line x1="290" y1="200" x2="300" y2="200" style="stroke:rgb(0, 0, 0);stroke-linecap:square;stroke-width:2" />
	<text x="286" y="200" style="font-family:Arial;font-size:10px;text-anchor:end" dominant-baseline="middle" transform="rotate(0, 286, 200)">GPIO8</text>
	<text x="294" y="198" style="font-family:Arial;font-size:8px;text-anchor:start" dominant-baseline="baseline" transform="rotate(0, 294, 198)">SDI/SD1</text>
	<line x1="180" y1="210" x2="190" y2="210" style="stroke:rgb(0, 0, 0);stroke-linecap:square;stroke-width:2" />
	<text x="194" y="210" style="font-family:Arial;font-size:10px;text-anchor:start" dominant-baseline="middle" transform="rotate(0, 194, 210)">GPIO11</text>
	<text x="186" y="208" style="font-family:Arial;font-size:8px;text-anchor:end" dominant-baseline="baseline" transform="rotate(0, 186, 208)">CSC/CMD</text>
	<line x1="290" y1="210" x2="300" y2="210" style="stroke:rgb(0, 0, 0);stroke-linecap:square;stroke-width:2" />
	<text x="286" y="210" style="font-family:Arial;font-size:10px;text-anchor:end" dominant-baseline="middle" transform="rotate(0, 286, 210)">GPIO7</text>
	<text x="294" y="208" style="font-family:Arial;font-size:8px;text-anchor:start" dominant-baseline="baseline" transform="rotate(0, 294, 208)">SDO/SD0</text>
	<line x1="180" y1="220" x2="190" y2="220" style="stroke:rgb(0, 0, 0);stroke-linecap:square;stroke-width:2" />
	<text x="194" y="220" style="font-family:Arial;font-size:10px;text-anchor:start" dominant-baseline="middle" transform="rotate(0, 194, 220)">GND</text>
	<text x="186" y="218" style="font-family:Arial;font-size:8px;text-anchor:end" dominant-baseline="baseline" transform="rotate(0, 186, 218)"></text>
	<line x1="290" y1="220" x2="300" y2="220" style="stroke:rgb(0, 0, 0);stroke-linecap:square;stroke-width:2" />
	<text x="286" y="220" style="font-family:Arial;font-size:10px;text-anchor:end" dominant-baseline="middle" transform="rotate(0, 286, 220)">GND</text>
	<text x="294" y="218" style="font-family:Arial;font-size:8px;text-anchor:start" dominant-baseline="baseline" transform="rotate(0, 294, 218)">SCK/CLK</text>
	<line x1="180" y1="230" x2="190" y2="230" style="stroke:rgb(0, 0, 0);stroke-linecap:square;stroke-width:2" />
	<text x="194" y="230" style="font-family:Arial;font-size:10px;text-anchor:start" dominant-baseline="middle" transform="rotate(0, 194, 230)">VIN</text>
	<text x="186" y="228" style="font-family:Arial;font-size:8px;text-anchor:end" dominant-baseline="baseline" transform="rotate(0, 186, 228)"></text>
	<line x1="290" y1="230" x2="300" y2="230" style="stroke:rgb(0, 0, 0);stroke-linecap:square;stroke-width:2" />
	<text x="286" y="230" style="font-family:Arial;font-size:10px;text-anchor:end" dominant-baseline="middle" transform="rotate(0, 286, 230)">3V3</text>
	<text x="294" y="228" style="font-family:Arial;font-size:8px;text-anchor:start" dominant-baseline="baseline" transform="rotate(0, 294, 228)"></text>
	<line x1="250" y1="320" x2="290" y2="320" style="stroke:rgb(0, 0, 0);stroke-linecap:square;stroke-width:2" />
	<line x1="330" y1="320" x2="370" y2="320" style="stroke:rgb(0, 0, 0);stroke-linecap:square;stroke-width:2" />
	<path d="M 290,320 L 292,320 L 295,313 L 301,327 L 307,313 L 313,327 L 319,313 L 325,327 L 328,320 L 330,320" style="fill-opacity:0;fill:rgb(0, 0, 0);stroke:rgb(0, 0, 0);stroke-linecap:square;stroke-width:2" />
	<text x="310" y="306" style="font-family:Arial;font-size:11px;text-anchor:middle" dominant-baseline="baseline" transform="rotate(0, 310, 306)">10 Ω</text>
	<text x="310" y="294" style="font-family:Arial;font-size:11px;text-anchor:middle" dominant-baseline="baseline" transform="rotate(0, 310, 294)">Pull-up Resistor</text>
	<ellipse cx="320" cy="220" rx="2" ry="2" style="fill-opacity:1;fill:rgb(0, 0, 0);stroke:rgb(0, 0, 0);stroke-width:2" />
	<ellipse cx="320" cy="270" rx="2" ry="2" style="fill-opacity:1;fill:rgb(0, 0, 0);stroke:rgb(0, 0, 0);stroke-width:2" />
	<ellipse cx="180" cy="270" rx="2" ry="2" style="fill-opacity:1;fill:rgb(0, 0, 0);stroke:rgb(0, 0, 0);stroke-width:2" />
	<ellipse cx="180" cy="310" rx="2" ry="2" style="fill-opacity:1;fill:rgb(0, 0, 0);stroke:rgb(0, 0, 0);stroke-width:2" />
	<ellipse cx="300" cy="230" rx="2" ry="2" style="fill-opacity:1;fill:rgb(0, 0, 0);stroke:rgb(0, 0, 0);stroke-width:2" />
	<ellipse cx="300" cy="250" rx="2" ry="2" style="fill-opacity:1;fill:rgb(0, 0, 0);stroke:rgb(0, 0, 0);stroke-width:2" />
	<ellipse cx="150" cy="250" rx="2" ry="2" style="fill-opacity:1;fill:rgb(0, 0, 0);stroke:rgb(0, 0, 0);stroke-width:2" />
	<ellipse cx="150" cy="300" rx="2" ry="2" style="fill-opacity:1;fill:rgb(0, 0, 0);stroke:rgb(0, 0, 0);stroke-width:2" />
	<ellipse cx="370" cy="180" rx="2" ry="2" style="fill-opacity:1;fill:rgb(0, 0, 0);stroke:rgb(0, 0, 0);stroke-width:2" />
	<ellipse cx="370" cy="320" rx="2" ry="2" style="fill-opacity:1;fill:rgb(0, 0, 0);stroke:rgb(0, 0, 0);stroke-width:2" />
</svg>